<svg width="27" height="27" viewBox="0 0 27 27" fill="none" xmlns="http://www.w3.org/2000/svg">
<path fill-rule="evenodd" clip-rule="evenodd" d="M3.375 5.625C2.75368 5.625 2.25 6.12868 2.25 6.75C2.25 7.37132 2.75368 7.875 3.375 7.875H23.625C24.2463 7.875 24.75 7.37132 24.75 6.75C24.75 6.12868 24.2463 5.625 23.625 5.625H3.375ZM3.375 10.125C2.75368 10.125 2.25 10.6287 2.25 11.25C2.25 11.8713 2.75368 12.375 3.375 12.375H23.5C24.1213 12.375 24.625 11.8713 24.625 11.25C24.625 10.6287 24.1213 10.125 23.5 10.125H3.375ZM2.25 15.75C2.25 15.1287 2.75368 14.625 3.375 14.625H23.625C24.2463 14.625 24.75 15.1287 24.75 15.75C24.75 16.3713 24.2463 16.875 23.625 16.875H3.375C2.75368 16.875 2.25 16.3713 2.25 15.75ZM3.5 18.875C2.87868 18.875 2.375 19.3787 2.375 20C2.375 20.6213 2.87868 21.125 3.5 21.125H23.5C24.1213 21.125 24.625 20.6213 24.625 20C24.625 19.3787 24.1213 18.875 23.5 18.875H3.5Z" fill="#293A5C"/>
</svg>
